<svg width="24" height="24" viewBox="0 0 24 24" xmlns="http://www.w3.org/2000/svg">
  <defs>
    <linearGradient id="fireGrad" x1="0%" y1="0%" x2="100%" y2="100%">
      <stop offset="0%" style="stop-color:#FF4500;stop-opacity:1" />
      <stop offset="50%" style="stop-color:#FF6347;stop-opacity:1" />
      <stop offset="100%" style="stop-color:#FFD700;stop-opacity:1" />
    </linearGradient>
    <filter id="fireGlow">
      <feGaussianBlur stdDeviation="1" result="coloredBlur"/>
      <feMerge> 
        <feMergeNode in="coloredBlur"/>
        <feMergeNode in="SourceGraphic"/>
      </feMerge>
    </filter>
  </defs>
  
  <!-- Внешняя рамка -->
  <rect x="0" y="0" width="24" height="24" rx="4" ry="4" fill="url(#fireGrad)" filter="url(#fireGlow)"/>
  
  <!-- Анимированные языки пламени -->
  <path d="M 2 4 Q 4 2 6 4 Q 4 6 2 4" fill="#FF4500" opacity="0.8">
    <animateTransform attributeName="transform" type="scale" values="1,1;1.1,1.1;1,1" dur="1s" repeatCount="indefinite"/>
  </path>
  <path d="M 18 4 Q 20 2 22 4 Q 20 6 18 4" fill="#FF6347" opacity="0.8">
    <animateTransform attributeName="transform" type="scale" values="1,1;1.1,1.1;1,1" dur="1.2s" repeatCount="indefinite"/>
  </path>
  <path d="M 2 20 Q 4 18 6 20 Q 4 22 2 20" fill="#FFD700" opacity="0.8">
    <animateTransform attributeName="transform" type="scale" values="1,1;1.1,1.1;1,1" dur="0.8s" repeatCount="indefinite"/>
  </path>
  <path d="M 18 20 Q 20 18 22 20 Q 20 22 18 20" fill="#FF4500" opacity="0.8">
    <animateTransform attributeName="transform" type="scale" values="1,1;1.1,1.1;1,1" dur="1.5s" repeatCount="indefinite"/>
  </path>
  
  <!-- Внутренняя рамка -->
  <rect x="2" y="2" width="20" height="20" rx="2" ry="2" fill="none" stroke="#FF4500" stroke-width="1"/>
  
  <!-- Центральная область -->
  <rect x="4" y="4" width="16" height="16" rx="1" ry="1" fill="transparent"/>
</svg>
