<svg width="24" height="24" viewBox="0 0 24 24" xmlns="http://www.w3.org/2000/svg">
  <defs>
    <linearGradient id="iceGrad" x1="0%" y1="0%" x2="100%" y2="100%">
      <stop offset="0%" style="stop-color:#B0E0E6;stop-opacity:1" />
      <stop offset="50%" style="stop-color:#87CEEB;stop-opacity:1" />
      <stop offset="100%" style="stop-color:#4682B4;stop-opacity:1" />
    </linearGradient>
    <filter id="iceGlow">
      <feGaussianBlur stdDeviation="0.8" result="coloredBlur"/>
      <feMerge> 
        <feMergeNode in="coloredBlur"/>
        <feMergeNode in="SourceGraphic"/>
      </feMerge>
    </filter>
  </defs>
  
  <!-- Внешняя рамка -->
  <rect x="0" y="0" width="24" height="24" rx="4" ry="4" fill="url(#iceGrad)" filter="url(#iceGlow)"/>
  
  <!-- Анимированные снежинки -->
  <g opacity="0.7">
    <path d="M 4 4 L 6 6 M 5 4 L 5 6 M 4 5 L 6 5" stroke="#B0E0E6" stroke-width="0.5">
      <animateTransform attributeName="transform" type="rotate" values="0 5 5;360 5 5" dur="3s" repeatCount="indefinite"/>
    </path>
    <path d="M 18 4 L 20 6 M 19 4 L 19 6 M 18 5 L 20 5" stroke="#87CEEB" stroke-width="0.5">
      <animateTransform attributeName="transform" type="rotate" values="0 19 5;360 19 5" dur="2.5s" repeatCount="indefinite"/>
    </path>
    <path d="M 4 18 L 6 20 M 5 18 L 5 20 M 4 19 L 6 19" stroke="#4682B4" stroke-width="0.5">
      <animateTransform attributeName="transform" type="rotate" values="0 5 19;360 5 19" dur="2s" repeatCount="indefinite"/>
    </path>
    <path d="M 18 18 L 20 20 M 19 18 L 19 20 M 18 19 L 20 19" stroke="#B0E0E6" stroke-width="0.5">
      <animateTransform attributeName="transform" type="rotate" values="0 19 19;360 19 19" dur="3.5s" repeatCount="indefinite"/>
    </path>
  </g>
  
  <!-- Внутренняя рамка -->
  <rect x="2" y="2" width="20" height="20" rx="2" ry="2" fill="none" stroke="#87CEEB" stroke-width="1"/>
  
  <!-- Центральная область -->
  <rect x="4" y="4" width="16" height="16" rx="1" ry="1" fill="transparent"/>
</svg>
